<mxfile host="app.diagrams.net" modified="2024-04-23T02:09:16.925Z" agent="Mozilla/5.0 (X11; Linux x86_64) AppleWebKit/537.36 (KHTML, like Gecko) Chrome/123.0.0.0 Safari/537.36" version="24.2.8" etag="4F9VXErWUB_UZVpmnPAb" type="github">
  <diagram name="Page-1" id="grrs5xGF7xNYxahE2opX">
    <mxGraphModel>
      <root>
        <mxCell id="0" />
        <mxCell id="1" parent="0" />
      </root>
    </mxGraphModel>
  </diagram>
</mxfile>
